<svg width="414" height="79" preserveAspectRatio="none" viewBox="0 0 414 79" fill="none" xmlns="http://www.w3.org/2000/svg">
<path fill-rule="evenodd" clip-rule="evenodd" d="M0 29.6373L17.25 33.7508C34.5 37.8644 69 46.0915 103.5 41.9779C138 37.8644 172.5 21.4101 207 11.1262C241.5 0.842334 276 -3.27123 310.5 2.89911C345 9.06946 379.5 25.5237 396.75 33.7508L414 41.9779V79H396.75C379.5 79 345 79 310.5 79C276 79 241.5 79 207 79C172.5 79 138 79 103.5 79C69 79 34.5 79 17.25 79H0V29.6373Z" fill="#010C1C"/>
</svg>
