<svg width="414" height="79" preserveAspectRatio="none" viewBox="0 0 414 79" fill="none" xmlns="http://www.w3.org/2000/svg">
<path fill-rule="evenodd" clip-rule="evenodd" d="M414 49.3627L396.75 45.2492C379.5 41.1356 345 32.9085 310.5 37.0221C276 41.1356 241.5 57.5899 207 67.8738C172.5 78.1577 138 82.2712 103.5 76.1009C69 69.9305 34.5 53.4763 17.25 45.2492L1.43051e-06 37.0221V2.07939e-07H17.25C34.5 2.07939e-07 69 2.07939e-07 103.5 2.07939e-07C138 2.07939e-07 172.5 2.07939e-07 207 2.07939e-07C241.5 2.07939e-07 276 2.07939e-07 310.5 2.07939e-07C345 2.07939e-07 379.5 2.07939e-07 396.75 2.07939e-07H414V49.3627Z" fill="#010C1C"/>
</svg>
